# Blender v2.82 (sub 7) OBJ File: 'box.blend'
# www.blender.org
mtllib box.mtl
o Cube
v 1.000000 1.000000 -1.000000
v 1.000000 -1.000000 -1.000000
v 1.000000 1.000000 1.000000
v 1.000000 -1.000000 1.000000
v -1.000000 1.000000 -1.000000
v -1.000000 -1.000000 -1.000000
v -1.000000 1.000000 1.000000
v -1.000000 -1.000000 1.000000
vt 0.375000 0.000000
vt 0.625000 0.000000
vt 0.625000 0.250000
vt 0.375000 0.250000
vt 0.625000 0.500000
vt 0.875000 0.500000
vt 0.875000 0.750000
vt 0.625000 0.750000
vt 0.375000 0.750000
vt 0.625000 1.000000
vt 0.375000 1.000000
vt 0.125000 0.500000
vt 0.375000 0.500000
vt 0.125000 0.750000
vt 0.086817 0.086317
vt 0.927948 0.086317
vt 0.927948 0.927448
vt 0.086817 0.927448
vn -1.0000 0.0000 0.0000
vn 0.0000 1.0000 0.0000
vn 0.0000 0.0000 1.0000
vn 0.0000 -1.0000 0.0000
vn 1.0000 0.0000 0.0000
vn 0.0000 0.0000 -1.0000
usemtl Material
s off
f 8/1/1 7/2/1 5/3/1 6/4/1
usemtl Material.001
f 1/5/2 5/6/2 7/7/2 3/8/2
f 4/9/3 3/8/3 7/10/3 8/11/3
f 6/12/4 2/13/4 4/9/4 8/14/4
f 2/15/5 1/16/5 3/17/5 4/18/5
f 6/4/6 5/3/6 1/5/6 2/13/6
